<svg id="SvgjsSvg1001" width="288" height="288" xmlns="http://www.w3.org/2000/svg" version="1.1" xmlns:xlink="http://www.w3.org/1999/xlink" xmlns:svgjs="http://svgjs.com/svgjs"><defs id="SvgjsDefs1002"></defs><g id="SvgjsG1008"><svg xmlns="http://www.w3.org/2000/svg" width="288" height="288" fill="none" viewBox="0 0 24 24"><path fill="#456fe3" d="M9.24565 15.4509L8.87741 17.638C8.82723 17.937 8.94991 18.2383 9.19469 18.4167C9.43986 18.5948 9.7654 18.6186 10.0333 18.4783L11.9996 17.4518L13.9659 18.4785C14.0823 18.5388 14.2097 18.5692 14.3359 18.5692C14.5011 18.5692 14.6659 18.5175 14.8049 18.4169C15.0498 18.2385 15.1729 17.9372 15.1223 17.6382L14.7545 15.4511L16.3378 13.898C16.5543 13.6859 16.6314 13.3694 16.5385 13.0813C16.4453 12.7935 16.1957 12.5827 15.8961 12.5385L13.7021 12.2132L12.7139 10.227C12.5799 9.95589 12.3023 9.78418 11.9994 9.78418C11.6971 9.78418 11.4196 9.95589 11.2845 10.227L10.2973 12.2132L8.10326 12.5383C7.8031 12.5825 7.55467 12.7933 7.46122 13.0811C7.36776 13.3692 7.44468 13.6861 7.66158 13.8978L9.24565 15.4509Z" class="colorfff svgShape"></path><path fill="#456fe3" d="M21.429 2.55146H18.9168V1.15796C18.9168 0.518407 18.3983 0 17.7586 0H17.575C16.9354 0 16.4172 0.518407 16.4172 1.15796V2.55146H7.55332V1.15796C7.55332 0.518407 7.03492 0 6.39556 0H6.21173C5.57218 0 5.05397 0.518407 5.05397 1.15796V2.55146H2.57096C1.25706 2.55146 0.187744 3.62039 0.187744 4.93468V21.617C0.187744 22.9305 1.25706 24.0002 2.57096 24.0002H21.4292C22.7429 24.0002 23.8124 22.9307 23.8124 21.617V4.93468C23.8122 3.62039 22.7427 2.55146 21.429 2.55146ZM21.1181 21.306H2.88189V8.3199H21.1181V21.306Z" class="colorfff svgShape"></path></svg></g></svg>